<?xml version="1.0" encoding="UTF-8" standalone="no"?>
<!-- Created with Inkscape (http://www.inkscape.org/) -->

<svg
   xmlns:dc="http://purl.org/dc/elements/1.1/"
   xmlns:cc="http://creativecommons.org/ns#"
   xmlns:rdf="http://www.w3.org/1999/02/22-rdf-syntax-ns#"
   xmlns:svg="http://www.w3.org/2000/svg"
   xmlns="http://www.w3.org/2000/svg"
   xmlns:xlink="http://www.w3.org/1999/xlink"
   xmlns:sodipodi="http://sodipodi.sourceforge.net/DTD/sodipodi-0.dtd"
   xmlns:inkscape="http://www.inkscape.org/namespaces/inkscape"
   inkscape:version="0.91 r"
   version="1.1"
   id="svg2"
   viewBox="0 0 512.00001 512.00001"
   height="512"
   width="512"
   sodipodi:docname="jgrasp.svg">
  <sodipodi:namedview
     inkscape:window-maximized="1"
     inkscape:window-y="24"
     inkscape:window-x="0"
     inkscape:window-height="1056"
     inkscape:window-width="1920"
     showgrid="false"
     inkscape:current-layer="layer1"
     inkscape:document-units="px"
     inkscape:cy="161.90595"
     inkscape:cx="192.45384"
     inkscape:zoom="0.52329546"
     inkscape:pageshadow="2"
     inkscape:pageopacity="0.0"
     borderopacity="1.0"
     bordercolor="#666666"
     pagecolor="#ffffff"
     id="base"
     inkscape:object-nodes="true"
     inkscape:snap-object-midpoints="true"
     units="px"
     showguides="false" />
  <defs
     id="defs4">
    <linearGradient
       inkscape:collect="always"
       id="linearGradient4855">
      <stop
         style="stop-color:#1a1a1a;stop-opacity:1;"
         offset="0"
         id="stop4857" />
      <stop
         style="stop-color:#1a1a1a;stop-opacity:0;"
         offset="1"
         id="stop4859" />
    </linearGradient>
    <linearGradient
       id="linearGradient4573"
       inkscape:collect="always">
      <stop
         id="stop4575"
         offset="0"
         style="stop-color:#008c8c;stop-opacity:1" />
      <stop
         id="stop4577"
         offset="1"
         style="stop-color:#006464;stop-opacity:1" />
    </linearGradient>
    <radialGradient
       gradientTransform="matrix(1.1967713,0,0,1.1967713,-50.373464,-153.31705)"
       gradientUnits="userSpaceOnUse"
       r="228.22289"
       fy="779.16351"
       fx="256"
       cy="779.16351"
       cx="256"
       id="radialGradient4579"
       xlink:href="#linearGradient4573"
       inkscape:collect="always" />
    <linearGradient
       inkscape:collect="always"
       xlink:href="#linearGradient4855"
       id="linearGradient4861"
       x1="116.92735"
       y1="-0.40407091"
       x2="405.46277"
       y2="288.13132"
       gradientUnits="userSpaceOnUse" />
  </defs>
  <metadata
     id="metadata7">
    <rdf:RDF>
      <cc:Work
         rdf:about="">
        <dc:format>image/svg+xml</dc:format>
        <dc:type
           rdf:resource="http://purl.org/dc/dcmitype/StillImage" />
        <dc:title></dc:title>
      </cc:Work>
    </rdf:RDF>
  </metadata>
  <g
     transform="translate(0,-540.36216)"
     inkscape:label="Layer 1"
     inkscape:groupmode="layer"
     id="layer1">
    <rect
       ry="36.619102"
       rx="40.535168"
       y="550.94061"
       x="27.777117"
       height="456.44577"
       width="456.44577"
       id="rect4464"
       style="opacity:1;fill:url(#radialGradient4579);fill-opacity:1;stroke:none;stroke-opacity:1" />
    <path
       inkscape:connector-curvature="0"
       id="path4413"
       d="m 278.17434,616.09478 c -26.81629,0.52146 -130.22779,14.10364 -159.6597,122.59817 -4.08352,15.05294 -6.38667,32.3115 -6.28932,50.00003 0.16458,-16.63756 2.43652,-32.80647 6.28932,-47.00918 29.43191,-108.49454 132.84341,-122.07672 159.6597,-122.59818 39.57251,-0.76946 76.62969,4.84404 106.15186,20.84424 l 0.56279,-2.70287 C 355.27682,620.99443 317.99557,615.32046 278.17434,616.09478 Z m -13.34424,162.90579 -2.59161,14.95418 c 0,0 0.47377,0.0202 0.51699,0.0202 l 2.07462,-11.98298 126.95679,0.85734 0.89007,-2.98431 -127.84686,-0.86387 z m -84.59429,24.86911 c 0.0229,34.84247 7.91439,68.14095 25.216,83.33116 24.71177,21.69596 67.36253,9.24741 67.36253,9.24741 7.10283,-3.69346 23.46781,-66.57335 22.62439,-87.9778 -0.55497,23.71078 -15.82474,81.44455 -22.62439,84.98042 0,0 -42.65076,12.44855 -67.36253,-9.24741 -16.80481,-14.75398 -24.74998,-46.59146 -25.216,-80.33378 z"
       style="opacity:0.2;fill:#ffffff;fill-opacity:1;fill-rule:evenodd;stroke:none;stroke-width:1px;stroke-linecap:butt;stroke-linejoin:miter;stroke-opacity:1" />
    <path
       inkscape:connector-curvature="0"
       id="path4415"
       d="m 291.85856,635.93545 c -59.35276,0.80207 -82.88955,49.75799 -99.24078,91.73429 -8.41075,21.59155 -12.74639,49.54777 -12.38219,76.30891 -0.0306,-25.88837 4.26851,-52.63974 12.38219,-73.46863 16.35123,-41.97628 39.88802,-90.9322 99.24078,-91.73428 61.4386,-0.83026 65.70024,73.2461 65.70024,73.2461 l 12.29717,0.56936 15.03271,-72.36913 c -0.17391,-0.0955 -0.35556,-0.18027 -0.53007,-0.27477 l -14.50264,69.80367 -12.29717,-0.5759 c 0,0 -4.26164,-74.06978 -65.70024,-73.23952 z m 99.97385,146.91753 -3.63221,12.18586 c -14.95886,0.59836 -24.64283,2.77021 -26.13879,7.25784 0,0 -17.85428,83.75657 -23.2395,90.03934 -2.69255,3.88926 -29.38858,23.07536 -113.81544,22.84682 -83.81657,-0.2269 -112.47458,-65.90037 -112.78147,-126.42671 -0.58521,61.29351 27.65109,129.03643 112.78147,129.26704 84.42686,0.22854 111.12289,-18.95756 113.81544,-22.84693 5.38522,-6.28266 23.2395,-90.03924 23.2395,-90.03924 1.49596,-4.48764 11.17993,-6.65294 26.13879,-7.25129 l 4.47644,-15.02619 -0.84423,-0.008 z m -129.10345,11.26963 -0.49079,2.82068 c 0,0 30.35849,0.37724 32.95151,8.40315 0.14744,0.89774 0.20474,2.01476 0.24872,3.16753 0.0502,-2.32598 0.0109,-4.43165 -0.24872,-6.00786 -2.52656,-7.82003 -30.98047,-8.36005 -32.46072,-8.3835 z"
       style="opacity:0.2;fill:#000000;fill-opacity:1;fill-rule:evenodd;stroke:none;stroke-width:1px;stroke-linecap:butt;stroke-linejoin:miter;stroke-opacity:1" />
    <path
       style="fill:url(#linearGradient4861);fill-opacity:1;fill-rule:evenodd;stroke:none;stroke-width:1px;stroke-linecap:butt;stroke-linejoin:miter;stroke-opacity:1"
       d="m 285.61328,78.658203 c -2.4677,-0.003 -4.94671,0.01996 -7.43555,0.06836 -26.81629,0.521451 -130.23226,14.10506 -159.66406,122.599608 -12.22782,45.0754 -8.7038,109.86457 28.49805,147.06641 l 21.21289,21.21289 c 17.71594,17.71593 43.06914,29.17688 77.99609,29.27148 84.42687,0.22853 111.1219,-18.95828 113.81446,-22.84765 5.38521,-6.28266 23.24023,-90.03907 23.24023,-90.03907 1.49585,-4.48764 11.17981,-6.65556 26.13867,-7.2539 l 4.47852,-15.02539 -21.21289,-21.21289 -127.84961,-0.86914 -2.58985,14.95507 21.21289,21.2129 c 0,0 5.21587,0.0694 11.5,0.71484 -2.82835,26.58695 -15.97333,74.36838 -22.13476,77.57226 0,0 -32.71651,9.54877 -57.44336,-2.65625 -18.90954,-34.64981 -17.82126,-100.27687 -1.54492,-142.06054 16.35134,-41.97629 39.88747,-90.9362 99.24023,-91.73828 12.31937,-0.16648 22.32807,2.69197 30.47657,7.34765 12.61341,20.56016 14.01562,44.6836 14.01562,44.6836 l 21.21289,21.21289 12.29492,0.57226 15.03125,-72.37109 -21.21289,-21.212892 C 357.12723,84.643303 322.62881,78.703155 285.61328,78.658203 Z m 21.24414,21.212891 c 27.16282,0.03543 52.96948,3.246096 75.75196,10.968746 l -10.76954,51.84961 c -3.52115,-9.18662 -8.79091,-18.92958 -16.68359,-26.82226 L 333.94336,114.6543 c -6.86094,-6.86094 -15.71226,-12.30555 -27.08594,-14.783206 z m -55.03125,8.230466 c -31.24182,16.47327 -47.17285,51.15228 -59.20898,82.05078 -18.59585,47.73818 -17.36663,126.60212 10.86133,154.83008 l 21.21289,21.21289 c 0.64532,0.64532 1.30489,1.26406 1.97851,1.85547 4.98607,4.37757 10.70536,7.34798 16.6543,9.32813 -5.79177,0.19374 -11.8656,0.30066 -18.31641,0.2832 -28.06802,-0.076 -49.94874,-7.49574 -66.65625,-19.59961 -27.85979,-38.02445 -29.66865,-94.81318 -18.625,-135.52344 19.49631,-71.86932 71.44488,-102.07203 112.09961,-114.4375 z m 41.90235,154.79492 69.15039,0.46875 c -0.36654,0.44386 -0.64956,0.91156 -0.81641,1.41211 0,0 -17.85502,83.75445 -23.24023,90.03711 -1.67059,2.41315 -12.59854,10.71349 -40.80469,16.61328 8.39282,-17.87057 20.84241,-70.28556 18.38672,-85.22851 -0.21542,-0.66675 -0.62217,-1.28233 -1.1875,-1.84766 l -21.21485,-21.21289 c -0.0834,-0.0834 -0.18321,-0.16085 -0.27343,-0.24219 z"
       id="path4730"
       transform="translate(0,540.36216)"
       inkscape:connector-curvature="0"
       sodipodi:nodetypes="sssssscccccccccccssccccccscccssccsssscscscccccccccc" />
    <path
       style="fill:#ffffff;fill-opacity:1;fill-rule:evenodd;stroke:none;stroke-width:1px;stroke-linecap:butt;stroke-linejoin:miter;stroke-opacity:1"
       d="m 357.56164,712.02195 c 0,0 -4.2659,-74.07357 -65.7045,-73.24331 -59.35276,0.80208 -82.88955,49.76031 -99.24089,91.7366 -19.02097,48.82953 -17.30008,130.22357 12.8397,156.68506 24.71178,21.69595 67.36166,9.24653 67.36166,9.24653 7.47947,-3.88926 25.26533,-73.49973 22.37305,-91.0993 -2.59313,-8.02591 -32.95053,-8.4019 -32.95053,-8.4019 l 2.58997,-14.95367 127.84893,0.86748 -4.47883,15.02627 c -14.95886,0.59834 -24.6425,2.76519 -26.13835,7.25283 0,0 -17.85527,83.75635 -23.24048,90.03901 -2.69256,3.88937 -29.38716,23.07601 -113.81403,22.84748 C 116.737,917.73177 100.46271,808.22826 118.51355,741.68744 c 29.4318,-108.49455 132.8481,-122.07656 159.66439,-122.59801 39.82134,-0.77433 77.09779,4.90122 106.71,21.13378 l -15.03066,72.37143 z"
       id="path4154"
       inkscape:connector-curvature="0"
       sodipodi:nodetypes="csasccccccccsssccc" />
  </g>
</svg>
