<?xml version="1.0" encoding="UTF-8" standalone="no"?>
<!-- Created with Inkscape (http://www.inkscape.org/) -->

<svg
   xmlns:dc="http://purl.org/dc/elements/1.1/"
   xmlns:cc="http://creativecommons.org/ns#"
   xmlns:rdf="http://www.w3.org/1999/02/22-rdf-syntax-ns#"
   xmlns:svg="http://www.w3.org/2000/svg"
   xmlns="http://www.w3.org/2000/svg"
   xmlns:sodipodi="http://sodipodi.sourceforge.net/DTD/sodipodi-0.dtd"
   xmlns:inkscape="http://www.inkscape.org/namespaces/inkscape"
   width="22"
   height="22"
   viewBox="0 0 22 21.999999"
   id="svg2"
   version="1.1"
   inkscape:version="0.91 r"
   sodipodi:docname="diodon.svg">
  <defs
     id="defs4" />
  <sodipodi:namedview
     id="base"
     pagecolor="#ffffff"
     bordercolor="#666666"
     borderopacity="1.0"
     inkscape:pageopacity="0.0"
     inkscape:pageshadow="2"
     inkscape:zoom="22.627417"
     inkscape:cx="8.6414542"
     inkscape:cy="12.33807"
     inkscape:document-units="px"
     inkscape:current-layer="layer1"
     showgrid="false"
     fit-margin-top="0"
     fit-margin-left="0"
     fit-margin-right="0"
     fit-margin-bottom="0"
     units="px"
     inkscape:snap-global="true"
     inkscape:snap-page="true"
     inkscape:window-width="1920"
     inkscape:window-height="1056"
     inkscape:window-x="0"
     inkscape:window-y="24"
     inkscape:window-maximized="1" />
  <metadata
     id="metadata7">
    <rdf:RDF>
      <cc:Work
         rdf:about="">
        <dc:format>image/svg+xml</dc:format>
        <dc:type
           rdf:resource="http://purl.org/dc/dcmitype/StillImage" />
        <dc:title></dc:title>
      </cc:Work>
    </rdf:RDF>
  </metadata>
  <g
     inkscape:label="Layer 1"
     inkscape:groupmode="layer"
     id="layer1"
     transform="translate(683.78575,-596.25484)">
    <g
       id="layer1-0"
       transform="matrix(0.84847322,0,0,0.84847322,-682.01181,-276.54157)">
      <path
         inkscape:connector-curvature="0"
         id="path108"
         style="fill:#dbdee0;fill-opacity:1"
         d="m 2.9340936,1045.3562 c -1.2964449,1.3002 -1.0691364,3.5204 0.202527,4.8096 1.2804134,1.2793 3.3201534,1.3567 4.6204924,0.06 l 10.696121,-10.698 c 1.685319,-1.691 1.60707,-4.3585 -0.05219,-6.0387 -1.669596,-1.6696 -4.48413,-1.9319 -6.174662,-0.2474 l -8.9138956,8.9149 c -0.1971812,0.1969 -0.1167754,0.5979 0.079379,0.795 0.197078,0.1972 0.5986365,0.2841 0.7956676,0.087 l 8.748828,-8.7484 c 1.285266,-1.2838 3.284333,-1.227 4.586253,0.077 1.290613,1.3132 1.171182,3.1573 -0.112077,4.4433 l -10.3635689,10.3664 c -0.89647,0.893 -2.1197675,1.0218 -3.0323786,0.1089 -0.905137,-0.9235 -0.9337481,-2.318 -0.041177,-3.2154 l 8.5816755,-8.5826 c 0.463028,-0.4636 1.209012,-0.4448 1.735702,0.077 0.514139,0.5326 0.365119,1.1151 -0.09995,1.5786 l -7.8556735,7.8571 c -0.1979347,0.1968 -0.116966,0.5979 0.079354,0.7958 0.1967277,0.1969 0.5991902,0.284 0.7962715,0.087 l 8.021137,-8.0243 c 0.884449,-0.8871 0.80207,-2.2959 -0.06325,-3.173 -0.873223,-0.8723 -2.43727,-1.1301 -3.323988,-0.2465 z"
         sodipodi:nodetypes="ccccccccccccccccccccccccc" />
    </g>
  </g>
</svg>
