<?xml version="1.0" encoding="UTF-8" standalone="no"?>
<!-- Created with Inkscape (http://www.inkscape.org/) -->

<svg
   xmlns:dc="http://purl.org/dc/elements/1.1/"
   xmlns:cc="http://creativecommons.org/ns#"
   xmlns:rdf="http://www.w3.org/1999/02/22-rdf-syntax-ns#"
   xmlns:svg="http://www.w3.org/2000/svg"
   xmlns="http://www.w3.org/2000/svg"
   xmlns:sodipodi="http://sodipodi.sourceforge.net/DTD/sodipodi-0.dtd"
   xmlns:inkscape="http://www.inkscape.org/namespaces/inkscape"
   width="22"
   height="22"
   viewBox="0 0 21.999999 22.000001"
   id="svg2"
   version="1.1"
   inkscape:version="0.91 r"
   sodipodi:docname="nm-stage01-connecting04.svg">
  <defs
     id="defs4" />
  <sodipodi:namedview
     id="base"
     pagecolor="#ffffff"
     bordercolor="#666666"
     borderopacity="1.0"
     inkscape:pageopacity="0.0"
     inkscape:pageshadow="2"
     inkscape:zoom="22.627417"
     inkscape:cx="19.207904"
     inkscape:cy="10.546319"
     inkscape:document-units="px"
     inkscape:current-layer="layer1"
     showgrid="false"
     fit-margin-top="0"
     fit-margin-left="0"
     fit-margin-right="0"
     fit-margin-bottom="0"
     units="px"
     inkscape:snap-page="true"
     inkscape:object-paths="false"
     inkscape:snap-center="true"
     inkscape:snap-object-midpoints="false"
     inkscape:object-nodes="true"
     inkscape:window-width="1920"
     inkscape:window-height="1056"
     inkscape:window-x="0"
     inkscape:window-y="24"
     inkscape:window-maximized="1" />
  <metadata
     id="metadata7">
    <rdf:RDF>
      <cc:Work
         rdf:about="">
        <dc:format>image/svg+xml</dc:format>
        <dc:type
           rdf:resource="http://purl.org/dc/dcmitype/StillImage" />
        <dc:title></dc:title>
      </cc:Work>
    </rdf:RDF>
  </metadata>
  <g
     inkscape:label="Layer 1"
     inkscape:groupmode="layer"
     id="layer1"
     transform="translate(214.74894,-494.67263)">
    <path
       style="opacity:1;fill:#dbdee0;fill-opacity:1;stroke:none;stroke-width:15;stroke-linecap:round;stroke-miterlimit:4;stroke-dasharray:none;stroke-opacity:1"
       d="m -193.90729,507.05002 -1.79598,-0.2582 a 8.1250071,8.1250071 0 0 0 -6.88947,-9.16149 8.1250071,8.1250071 0 0 0 -9.19851,6.88611 8.1250071,8.1250071 0 0 0 6.88612,9.19852 8.1250071,8.1250071 0 0 0 6.02283,-1.54145 l -1.32921,-1.77558 a 5.9062572,5.9062572 0 0 1 -4.37789,1.12086 5.9062572,5.9062572 0 0 1 -5.00567,-6.68661 5.9062572,5.9062572 0 0 1 6.6866,-5.00568 5.9062572,5.9062572 0 0 1 5.00904,6.64959 l -1.85013,-0.26598 2.4734,3.53442 3.36887,-2.69451 z"
       id="path4215"
       inkscape:connector-curvature="0"
       inkscape:transform-center-y="-0.00042665418"
       inkscape:transform-center-x="-0.85832752" />
  </g>
</svg>
