<?xml version="1.0" encoding="UTF-8" standalone="no"?>
<!-- Created with Inkscape (http://www.inkscape.org/) -->

<svg
   xmlns:dc="http://purl.org/dc/elements/1.1/"
   xmlns:cc="http://creativecommons.org/ns#"
   xmlns:rdf="http://www.w3.org/1999/02/22-rdf-syntax-ns#"
   xmlns:svg="http://www.w3.org/2000/svg"
   xmlns="http://www.w3.org/2000/svg"
   xmlns:sodipodi="http://sodipodi.sourceforge.net/DTD/sodipodi-0.dtd"
   xmlns:inkscape="http://www.inkscape.org/namespaces/inkscape"
   width="22"
   height="22"
   viewBox="0 0 21.999999 22.000001"
   id="svg2"
   version="1.1"
   inkscape:version="0.91 r"
   sodipodi:docname="nm-stage03-connecting02.svg">
  <defs
     id="defs4" />
  <sodipodi:namedview
     id="base"
     pagecolor="#ffffff"
     bordercolor="#666666"
     borderopacity="1.0"
     inkscape:pageopacity="0.0"
     inkscape:pageshadow="2"
     inkscape:zoom="32"
     inkscape:cx="12.232811"
     inkscape:cy="11.280831"
     inkscape:document-units="px"
     inkscape:current-layer="layer1"
     showgrid="false"
     fit-margin-top="0"
     fit-margin-left="0"
     fit-margin-right="0"
     fit-margin-bottom="0"
     units="px"
     inkscape:snap-page="true"
     inkscape:object-paths="false"
     inkscape:snap-center="true"
     inkscape:snap-object-midpoints="false"
     inkscape:object-nodes="true"
     inkscape:window-width="1920"
     inkscape:window-height="1056"
     inkscape:window-x="0"
     inkscape:window-y="24"
     inkscape:window-maximized="1" />
  <metadata
     id="metadata7">
    <rdf:RDF>
      <cc:Work
         rdf:about="">
        <dc:format>image/svg+xml</dc:format>
        <dc:type
           rdf:resource="http://purl.org/dc/dcmitype/StillImage" />
        <dc:title></dc:title>
      </cc:Work>
    </rdf:RDF>
  </metadata>
  <g
     inkscape:label="Layer 1"
     inkscape:groupmode="layer"
     id="layer1"
     transform="translate(214.74894,-494.67263)">
    <path
       style="opacity:1;fill:#dbdee0;fill-opacity:1;stroke:none;stroke-width:15;stroke-linecap:round;stroke-miterlimit:4;stroke-dasharray:none;stroke-opacity:1"
       d="m -198.40758,497.29259 -0.98096,1.52642 a 8.1250061,8.1250061 0 0 0 -9.8234,0.84235 l 1.49424,1.64518 a 5.9062564,5.9062564 0 0 1 7.12963,-0.62099 l -1.01053,1.57242 4.24251,-0.78158 -1.05149,-4.1838 z m 2.59537,6.65489 -2.17164,0.47101 a 5.9062564,5.9062564 0 0 1 -3.02734,6.48448 l -0.85573,-1.6597 -1.44378,4.06375 4.1482,1.18231 -0.83167,-1.61406 a 8.1250061,8.1250061 0 0 0 4.18196,-8.92779 z m -14.76781,-1.71298 -3.09672,3.00149 1.81263,0.0876 a 8.1250061,8.1250061 0 0 0 5.64145,8.08544 l 0.6774,-2.11618 a 5.9062564,5.9062564 0 0 1 -4.10393,-5.86455 l 1.8679,0.0883 -2.79873,-3.28217 z"
       id="path4952"
       inkscape:connector-curvature="0"
       inkscape:transform-center-x="0.90301161"
       inkscape:transform-center-y="0.21832205" />
  </g>
</svg>
