<?xml version="1.0" encoding="UTF-8" standalone="no"?>
<!-- Created with Inkscape (http://www.inkscape.org/) -->

<svg
   xmlns:dc="http://purl.org/dc/elements/1.1/"
   xmlns:cc="http://creativecommons.org/ns#"
   xmlns:rdf="http://www.w3.org/1999/02/22-rdf-syntax-ns#"
   xmlns:svg="http://www.w3.org/2000/svg"
   xmlns="http://www.w3.org/2000/svg"
   xmlns:sodipodi="http://sodipodi.sourceforge.net/DTD/sodipodi-0.dtd"
   xmlns:inkscape="http://www.inkscape.org/namespaces/inkscape"
   width="22"
   height="22"
   viewBox="0 0 21.999999 22.000001"
   id="svg2"
   version="1.1"
   inkscape:version="0.91 r"
   sodipodi:docname="nm-stage03-connecting06.svg">
  <defs
     id="defs4" />
  <sodipodi:namedview
     id="base"
     pagecolor="#ffffff"
     bordercolor="#666666"
     borderopacity="1.0"
     inkscape:pageopacity="0.0"
     inkscape:pageshadow="2"
     inkscape:zoom="32"
     inkscape:cx="12.232811"
     inkscape:cy="11.280831"
     inkscape:document-units="px"
     inkscape:current-layer="layer1"
     showgrid="false"
     fit-margin-top="0"
     fit-margin-left="0"
     fit-margin-right="0"
     fit-margin-bottom="0"
     units="px"
     inkscape:snap-page="true"
     inkscape:object-paths="false"
     inkscape:snap-center="true"
     inkscape:snap-object-midpoints="false"
     inkscape:object-nodes="true"
     inkscape:window-width="1920"
     inkscape:window-height="1056"
     inkscape:window-x="0"
     inkscape:window-y="24"
     inkscape:window-maximized="1" />
  <metadata
     id="metadata7">
    <rdf:RDF>
      <cc:Work
         rdf:about="">
        <dc:format>image/svg+xml</dc:format>
        <dc:type
           rdf:resource="http://purl.org/dc/dcmitype/StillImage" />
        <dc:title></dc:title>
      </cc:Work>
    </rdf:RDF>
  </metadata>
  <g
     inkscape:label="Layer 1"
     inkscape:groupmode="layer"
     id="layer1"
     transform="translate(214.74894,-494.67263)">
    <path
       style="opacity:1;fill:#dbdee0;fill-opacity:1;stroke:none;stroke-width:15;stroke-linecap:round;stroke-miterlimit:4;stroke-dasharray:none;stroke-opacity:1"
       d="m -200.9134,515.19708 -0.51124,-1.74094 a 8.1250061,8.1250061 0 0 0 5.7962,-7.97576 l -2.22186,0.0519 a 5.9062564,5.9062564 0 0 1 -4.19949,5.79497 l -0.52662,-1.79342 -2.18751,3.71815 3.85052,1.94506 z m -6.72909,-2.39643 1.06614,-1.94969 a 5.9062564,5.9062564 0 0 1 -2.91832,-6.53427 l 1.8147,0.44011 -2.12577,-3.75228 -3.60998,2.36082 1.76446,0.42842 a 8.1250061,8.1250061 0 0 0 4.00876,9.00689 z m 10.96526,-10.03921 -0.24054,-4.30591 -1.25319,1.31255 a 8.1250061,8.1250061 0 0 0 -9.80495,-1.03112 l 1.15572,1.89772 a 5.9062564,5.9062564 0 0 1 7.11965,0.73878 l -1.28992,1.35387 4.31328,0.0341 z"
       id="path4952"
       inkscape:connector-curvature="0"
       inkscape:transform-center-x="0.77201046"
       inkscape:transform-center-y="0.7013315" />
  </g>
</svg>
