<?xml version="1.0" encoding="UTF-8" standalone="no"?>
<!-- Created with Inkscape (http://www.inkscape.org/) -->

<svg
   xmlns:dc="http://purl.org/dc/elements/1.1/"
   xmlns:cc="http://creativecommons.org/ns#"
   xmlns:rdf="http://www.w3.org/1999/02/22-rdf-syntax-ns#"
   xmlns:svg="http://www.w3.org/2000/svg"
   xmlns="http://www.w3.org/2000/svg"
   xmlns:sodipodi="http://sodipodi.sourceforge.net/DTD/sodipodi-0.dtd"
   xmlns:inkscape="http://www.inkscape.org/namespaces/inkscape"
   width="22"
   height="22"
   viewBox="0 0 21.999999 22.000001"
   id="svg2"
   version="1.1"
   inkscape:version="0.91 r"
   sodipodi:docname="nm-stage01-connecting02.svg">
  <defs
     id="defs4" />
  <sodipodi:namedview
     id="base"
     pagecolor="#ffffff"
     bordercolor="#666666"
     borderopacity="1.0"
     inkscape:pageopacity="0.0"
     inkscape:pageshadow="2"
     inkscape:zoom="22.627417"
     inkscape:cx="19.207904"
     inkscape:cy="10.546319"
     inkscape:document-units="px"
     inkscape:current-layer="layer1"
     showgrid="false"
     fit-margin-top="0"
     fit-margin-left="0"
     fit-margin-right="0"
     fit-margin-bottom="0"
     units="px"
     inkscape:snap-page="true"
     inkscape:object-paths="false"
     inkscape:snap-center="true"
     inkscape:snap-object-midpoints="false"
     inkscape:object-nodes="true"
     inkscape:window-width="1920"
     inkscape:window-height="1056"
     inkscape:window-x="0"
     inkscape:window-y="24"
     inkscape:window-maximized="1" />
  <metadata
     id="metadata7">
    <rdf:RDF>
      <cc:Work
         rdf:about="">
        <dc:format>image/svg+xml</dc:format>
        <dc:type
           rdf:resource="http://purl.org/dc/dcmitype/StillImage" />
        <dc:title></dc:title>
      </cc:Work>
    </rdf:RDF>
  </metadata>
  <g
     inkscape:label="Layer 1"
     inkscape:groupmode="layer"
     id="layer1"
     transform="translate(214.74894,-494.67263)">
    <path
       style="opacity:1;fill:#dbdee0;fill-opacity:1;stroke:none;stroke-width:15;stroke-linecap:round;stroke-miterlimit:4;stroke-dasharray:none;stroke-opacity:1"
       d="m -198.40758,497.29259 -0.98096,1.52642 a 8.1250071,8.1250071 0 0 0 -11.1956,2.46095 8.1250071,8.1250071 0 0 0 2.44253,11.22788 8.1250071,8.1250071 0 0 0 11.22788,-2.44253 8.1250071,8.1250071 0 0 0 1.09988,-6.11889 l -2.1673,0.47148 a 5.9062572,5.9062572 0 0 1 -0.79912,4.44787 5.9062572,5.9062572 0 0 1 -8.1618,1.77553 5.9062572,5.9062572 0 0 1 -1.77553,-8.1618 5.9062572,5.9062572 0 0 1 8.12953,-1.79396 l -1.01053,1.57243 4.24251,-0.78159 -1.05149,-4.18379 z"
       id="path4215"
       inkscape:connector-curvature="0"
       inkscape:transform-center-y="-0.12752696"
       inkscape:transform-center-x="0.0016456538" />
  </g>
</svg>
