<?xml version="1.0" encoding="UTF-8" standalone="no"?>
<!-- Created with Inkscape (http://www.inkscape.org/) -->

<svg
   xmlns:dc="http://purl.org/dc/elements/1.1/"
   xmlns:cc="http://creativecommons.org/ns#"
   xmlns:rdf="http://www.w3.org/1999/02/22-rdf-syntax-ns#"
   xmlns:svg="http://www.w3.org/2000/svg"
   xmlns="http://www.w3.org/2000/svg"
   xmlns:sodipodi="http://sodipodi.sourceforge.net/DTD/sodipodi-0.dtd"
   xmlns:inkscape="http://www.inkscape.org/namespaces/inkscape"
   width="22"
   height="22"
   viewBox="0 0 21.999999 22.000001"
   id="svg2"
   version="1.1"
   inkscape:version="0.91 r"
   sodipodi:docname="nm-stage02-connecting04.svg">
  <defs
     id="defs4" />
  <sodipodi:namedview
     id="base"
     pagecolor="#ffffff"
     bordercolor="#666666"
     borderopacity="1.0"
     inkscape:pageopacity="0.0"
     inkscape:pageshadow="2"
     inkscape:zoom="22.627417"
     inkscape:cx="19.207904"
     inkscape:cy="10.546319"
     inkscape:document-units="px"
     inkscape:current-layer="layer1"
     showgrid="false"
     fit-margin-top="0"
     fit-margin-left="0"
     fit-margin-right="0"
     fit-margin-bottom="0"
     units="px"
     inkscape:snap-page="true"
     inkscape:object-paths="false"
     inkscape:snap-center="true"
     inkscape:snap-object-midpoints="false"
     inkscape:object-nodes="true"
     inkscape:window-width="1920"
     inkscape:window-height="1056"
     inkscape:window-x="0"
     inkscape:window-y="24"
     inkscape:window-maximized="1" />
  <metadata
     id="metadata7">
    <rdf:RDF>
      <cc:Work
         rdf:about="">
        <dc:format>image/svg+xml</dc:format>
        <dc:type
           rdf:resource="http://purl.org/dc/dcmitype/StillImage" />
        <dc:title></dc:title>
      </cc:Work>
    </rdf:RDF>
  </metadata>
  <g
     inkscape:label="Layer 1"
     inkscape:groupmode="layer"
     id="layer1"
     transform="translate(214.74894,-494.67263)">
    <path
       style="opacity:1;fill:#dbdee0;fill-opacity:1;stroke:none;stroke-width:15;stroke-linecap:round;stroke-miterlimit:4;stroke-dasharray:none;stroke-opacity:1"
       d="m -193.90729,507.05001 -1.79598,-0.25819 c 0.61614,-4.42946 -2.46304,-8.52409 -6.88948,-9.16151 -2.13263,-0.30456 -4.29896,0.24952 -6.02283,1.54145 l 1.32923,1.77559 c 1.25299,-0.9392 2.82766,-1.3424 4.37787,-1.12086 3.21356,0.46302 5.45082,3.43309 5.00903,6.6496 l -1.85012,-0.26598 2.4734,3.53442 3.36888,-2.69452 z m -4.97501,5.1235 -1.32924,-1.77558 c -1.25299,0.93919 -2.82766,1.34239 -4.37787,1.12085 -3.21356,-0.463 -5.45082,-3.43309 -5.00902,-6.6496 l 1.85012,0.26597 -2.4734,-3.53441 -3.36889,2.69451 1.79599,0.2582 c -0.61617,4.42944 2.46304,8.52409 6.88948,9.1615 2.13263,0.30457 4.29894,-0.24951 6.02283,-1.54144 z"
       id="path4215"
       inkscape:connector-curvature="0" />
  </g>
</svg>
