<?xml version="1.0" encoding="UTF-8" standalone="no"?>
<!-- Created with Inkscape (http://www.inkscape.org/) -->

<svg
   xmlns:dc="http://purl.org/dc/elements/1.1/"
   xmlns:cc="http://creativecommons.org/ns#"
   xmlns:rdf="http://www.w3.org/1999/02/22-rdf-syntax-ns#"
   xmlns:svg="http://www.w3.org/2000/svg"
   xmlns="http://www.w3.org/2000/svg"
   xmlns:sodipodi="http://sodipodi.sourceforge.net/DTD/sodipodi-0.dtd"
   xmlns:inkscape="http://www.inkscape.org/namespaces/inkscape"
   width="22"
   height="22"
   viewBox="0 0 21.999999 22.000001"
   id="svg2"
   version="1.1"
   inkscape:version="0.91 r"
   sodipodi:docname="nm-stage02-connecting11.svg">
  <defs
     id="defs4" />
  <sodipodi:namedview
     id="base"
     pagecolor="#ffffff"
     bordercolor="#666666"
     borderopacity="1.0"
     inkscape:pageopacity="0.0"
     inkscape:pageshadow="2"
     inkscape:zoom="22.627417"
     inkscape:cx="19.207904"
     inkscape:cy="10.546319"
     inkscape:document-units="px"
     inkscape:current-layer="layer1"
     showgrid="false"
     fit-margin-top="0"
     fit-margin-left="0"
     fit-margin-right="0"
     fit-margin-bottom="0"
     units="px"
     inkscape:snap-page="true"
     inkscape:object-paths="false"
     inkscape:snap-center="true"
     inkscape:snap-object-midpoints="false"
     inkscape:object-nodes="true"
     inkscape:window-width="1920"
     inkscape:window-height="1056"
     inkscape:window-x="0"
     inkscape:window-y="24"
     inkscape:window-maximized="1" />
  <metadata
     id="metadata7">
    <rdf:RDF>
      <cc:Work
         rdf:about="">
        <dc:format>image/svg+xml</dc:format>
        <dc:type
           rdf:resource="http://purl.org/dc/dcmitype/StillImage" />
        <dc:title></dc:title>
      </cc:Work>
    </rdf:RDF>
  </metadata>
  <g
     inkscape:label="Layer 1"
     inkscape:groupmode="layer"
     id="layer1"
     transform="translate(214.74894,-494.67263)">
    <path
       style="opacity:1;fill:#dbdee0;fill-opacity:1;stroke:none;stroke-width:15;stroke-linecap:round;stroke-miterlimit:4;stroke-dasharray:none;stroke-opacity:1"
       d="m -209.15318,497.333 0.98104,1.52637 c -3.75097,2.43516 -4.82889,7.44369 -2.41179,11.20631 1.16648,1.81115 3.0039,3.08544 5.10919,3.54215 l 0.47138,-2.16735 c -1.53035,-0.33184 -2.8663,-1.25781 -3.7141,-2.57444 -1.75458,-2.73179 -0.97516,-6.36762 1.74496,-8.14019 l 1.01061,1.57238 1.05127,-4.18385 -4.24256,-0.78138 z m 7.13003,0.40446 -0.47135,2.16734 c 1.53032,0.33185 2.86627,1.25784 3.71407,2.57445 1.7546,2.73179 0.97517,6.36762 -1.74497,8.14018 l -1.01062,-1.57236 -1.05124,4.18385 4.24254,0.78136 -0.98102,-1.52636 c 3.75097,-2.43514 4.82888,-7.44368 2.41178,-11.20631 -1.16646,-1.81114 -3.0039,-3.08543 -5.10919,-3.54215 z"
       id="path4215"
       inkscape:connector-curvature="0" />
  </g>
</svg>
