<?xml version="1.0" encoding="UTF-8" standalone="no"?>
<!-- Created with Inkscape (http://www.inkscape.org/) -->

<svg
   xmlns:dc="http://purl.org/dc/elements/1.1/"
   xmlns:cc="http://creativecommons.org/ns#"
   xmlns:rdf="http://www.w3.org/1999/02/22-rdf-syntax-ns#"
   xmlns:svg="http://www.w3.org/2000/svg"
   xmlns="http://www.w3.org/2000/svg"
   xmlns:sodipodi="http://sodipodi.sourceforge.net/DTD/sodipodi-0.dtd"
   xmlns:inkscape="http://www.inkscape.org/namespaces/inkscape"
   width="22"
   height="22"
   viewBox="0 0 21.999999 22.000001"
   id="svg2"
   version="1.1"
   inkscape:version="0.91 r"
   sodipodi:docname="nm-stage03-connecting07.svg">
  <defs
     id="defs4" />
  <sodipodi:namedview
     id="base"
     pagecolor="#ffffff"
     bordercolor="#666666"
     borderopacity="1.0"
     inkscape:pageopacity="0.0"
     inkscape:pageshadow="2"
     inkscape:zoom="32"
     inkscape:cx="12.232811"
     inkscape:cy="11.280831"
     inkscape:document-units="px"
     inkscape:current-layer="layer1"
     showgrid="false"
     fit-margin-top="0"
     fit-margin-left="0"
     fit-margin-right="0"
     fit-margin-bottom="0"
     units="px"
     inkscape:snap-page="true"
     inkscape:object-paths="false"
     inkscape:snap-center="true"
     inkscape:snap-object-midpoints="false"
     inkscape:object-nodes="true"
     inkscape:window-width="1920"
     inkscape:window-height="1056"
     inkscape:window-x="0"
     inkscape:window-y="24"
     inkscape:window-maximized="1" />
  <metadata
     id="metadata7">
    <rdf:RDF>
      <cc:Work
         rdf:about="">
        <dc:format>image/svg+xml</dc:format>
        <dc:type
           rdf:resource="http://purl.org/dc/dcmitype/StillImage" />
        <dc:title></dc:title>
      </cc:Work>
    </rdf:RDF>
  </metadata>
  <g
     inkscape:label="Layer 1"
     inkscape:groupmode="layer"
     id="layer1"
     transform="translate(214.74894,-494.67263)">
    <path
       style="opacity:1;fill:#dbdee0;fill-opacity:1;stroke:none;stroke-width:15;stroke-linecap:round;stroke-miterlimit:4;stroke-dasharray:none;stroke-opacity:1"
       d="m -206.51279,515.21813 0.51113,-1.74097 a 8.1250061,8.1250061 0 0 0 9.18808,-3.57602 l -1.89721,-1.15755 a 5.9062564,5.9062564 0 0 1 -6.66582,2.60465 l 0.52656,-1.79343 -3.85042,1.94526 2.1877,3.71803 z m -4.36529,-5.654 1.95097,-1.0638 a 5.9062564,5.9062564 0 0 1 1.07761,-7.07474 l 1.28869,1.35134 0.24031,-4.3059 -4.31327,0.0344 1.25274,1.31434 a 8.1250061,8.1250061 0 0 0 -1.49706,9.74438 z m 14.65216,-2.51732 2.12558,-3.75242 -1.76387,0.42667 a 8.1250061,8.1250061 0 0 0 -7.69101,-6.16836 l -0.0537,2.2213 a 5.9062564,5.9062564 0 0 1 5.59003,4.47065 l -1.8171,0.44157 3.61014,2.3606 z"
       id="path4952"
       inkscape:connector-curvature="0"
       inkscape:transform-center-x="-0.76348561"
       inkscape:transform-center-y="0.71277704" />
  </g>
</svg>
