<?xml version="1.0" encoding="UTF-8" standalone="no"?>
<!-- Created with Inkscape (http://www.inkscape.org/) -->

<svg
   xmlns:dc="http://purl.org/dc/elements/1.1/"
   xmlns:cc="http://creativecommons.org/ns#"
   xmlns:rdf="http://www.w3.org/1999/02/22-rdf-syntax-ns#"
   xmlns:svg="http://www.w3.org/2000/svg"
   xmlns="http://www.w3.org/2000/svg"
   xmlns:sodipodi="http://sodipodi.sourceforge.net/DTD/sodipodi-0.dtd"
   xmlns:inkscape="http://www.inkscape.org/namespaces/inkscape"
   width="22"
   height="22"
   viewBox="0 0 21.999999 22.000001"
   id="svg2"
   version="1.1"
   inkscape:version="0.91 r"
   sodipodi:docname="nm-stage01-connecting01.svg">
  <defs
     id="defs4" />
  <sodipodi:namedview
     id="base"
     pagecolor="#ffffff"
     bordercolor="#666666"
     borderopacity="1.0"
     inkscape:pageopacity="0.0"
     inkscape:pageshadow="2"
     inkscape:zoom="22.627417"
     inkscape:cx="12.394605"
     inkscape:cy="3.8430519"
     inkscape:document-units="px"
     inkscape:current-layer="layer1"
     showgrid="false"
     fit-margin-top="0"
     fit-margin-left="0"
     fit-margin-right="0"
     fit-margin-bottom="0"
     units="px"
     inkscape:snap-page="true"
     inkscape:object-paths="false"
     inkscape:snap-center="true"
     inkscape:snap-object-midpoints="false"
     inkscape:object-nodes="true"
     inkscape:window-width="1920"
     inkscape:window-height="1056"
     inkscape:window-x="0"
     inkscape:window-y="24"
     inkscape:window-maximized="1" />
  <metadata
     id="metadata7">
    <rdf:RDF>
      <cc:Work
         rdf:about="">
        <dc:format>image/svg+xml</dc:format>
        <dc:type
           rdf:resource="http://purl.org/dc/dcmitype/StillImage" />
        <dc:title></dc:title>
      </cc:Work>
    </rdf:RDF>
  </metadata>
  <g
     inkscape:label="Layer 1"
     inkscape:groupmode="layer"
     id="layer1"
     transform="translate(214.74894,-494.67263)">
    <path
       style="opacity:1;fill:#dbdee0;fill-opacity:1;stroke:none;stroke-width:15;stroke-linecap:round;stroke-miterlimit:4;stroke-dasharray:none;stroke-opacity:1"
       d="m 10.962891,1.0625 0,1.8144531 A 8.1250071,8.1250071 0 0 0 2.875,11 8.1250071,8.1250071 0 0 0 11,19.125 8.1250071,8.1250071 0 0 0 19.125,11 8.1250071,8.1250071 0 0 0 16.742188,5.2578125 l -1.56836,1.5683594 A 5.9062572,5.9062572 0 0 1 16.90625,11 5.9062572,5.9062572 0 0 1 11,16.90625 5.9062572,5.9062572 0 0 1 5.09375,11 5.9062572,5.9062572 0 0 1 10.962891,5.0957031 l 0,1.8691407 L 14.109375,4.0136719 10.962891,1.0625 Z"
       id="path4215"
       inkscape:connector-curvature="0"
       inkscape:transform-center-y="-0.90625793"
       transform="translate(-214.74894,494.67263)" />
  </g>
</svg>
