<?xml version="1.0" encoding="UTF-8" standalone="no"?>
<!-- Created with Inkscape (http://www.inkscape.org/) -->

<svg
   xmlns:dc="http://purl.org/dc/elements/1.1/"
   xmlns:cc="http://creativecommons.org/ns#"
   xmlns:rdf="http://www.w3.org/1999/02/22-rdf-syntax-ns#"
   xmlns:svg="http://www.w3.org/2000/svg"
   xmlns="http://www.w3.org/2000/svg"
   xmlns:sodipodi="http://sodipodi.sourceforge.net/DTD/sodipodi-0.dtd"
   xmlns:inkscape="http://www.inkscape.org/namespaces/inkscape"
   width="22"
   height="22"
   viewBox="0 0 21.999999 22.000001"
   id="svg2"
   version="1.1"
   inkscape:version="0.91 r"
   sodipodi:docname="nm-stage02-connecting07.svg">
  <defs
     id="defs4" />
  <sodipodi:namedview
     id="base"
     pagecolor="#ffffff"
     bordercolor="#666666"
     borderopacity="1.0"
     inkscape:pageopacity="0.0"
     inkscape:pageshadow="2"
     inkscape:zoom="22.627417"
     inkscape:cx="19.207904"
     inkscape:cy="10.546319"
     inkscape:document-units="px"
     inkscape:current-layer="layer1"
     showgrid="false"
     fit-margin-top="0"
     fit-margin-left="0"
     fit-margin-right="0"
     fit-margin-bottom="0"
     units="px"
     inkscape:snap-page="true"
     inkscape:object-paths="false"
     inkscape:snap-center="true"
     inkscape:snap-object-midpoints="false"
     inkscape:object-nodes="true"
     inkscape:window-width="1920"
     inkscape:window-height="1056"
     inkscape:window-x="0"
     inkscape:window-y="24"
     inkscape:window-maximized="1" />
  <metadata
     id="metadata7">
    <rdf:RDF>
      <cc:Work
         rdf:about="">
        <dc:format>image/svg+xml</dc:format>
        <dc:type
           rdf:resource="http://purl.org/dc/dcmitype/StillImage" />
        <dc:title></dc:title>
      </cc:Work>
    </rdf:RDF>
  </metadata>
  <g
     inkscape:label="Layer 1"
     inkscape:groupmode="layer"
     id="layer1"
     transform="translate(214.74894,-494.67263)">
    <path
       style="opacity:1;fill:#dbdee0;fill-opacity:1;stroke:none;stroke-width:15;stroke-linecap:round;stroke-miterlimit:4;stroke-dasharray:none;stroke-opacity:1"
       d="m -206.51278,515.21814 0.51113,-1.74098 c 4.29671,1.24019 8.78784,-1.22498 10.04866,-5.51567 0.60493,-2.06759 0.36476,-4.29071 -0.66871,-6.18089 l -1.94668,1.06304 c 0.75135,1.37388 0.92637,2.98991 0.48649,4.49282 -0.9156,3.11496 -4.17381,4.90681 -7.29472,4.01181 l 0.52654,-1.79345 -3.85041,1.94528 2.1877,3.71804 z m -4.36341,-5.65346 1.94666,-1.06305 c -0.75133,-1.37388 -0.92635,-2.98991 -0.48647,-4.49282 0.91558,-3.11498 4.17381,-4.90681 7.29472,-4.0118 l -0.52653,1.79345 3.85041,-1.94529 -2.1877,-3.71803 -0.51114,1.74096 c -4.29669,-1.2402 -8.78784,1.22499 -10.04865,5.51568 -0.60495,2.06759 -0.36477,4.29071 0.6687,6.1809 z"
       id="path4215"
       inkscape:connector-curvature="0" />
  </g>
</svg>
