<?xml version="1.0" encoding="UTF-8" standalone="no"?>
<!-- Created with Inkscape (http://www.inkscape.org/) -->

<svg
   xmlns:dc="http://purl.org/dc/elements/1.1/"
   xmlns:cc="http://creativecommons.org/ns#"
   xmlns:rdf="http://www.w3.org/1999/02/22-rdf-syntax-ns#"
   xmlns:svg="http://www.w3.org/2000/svg"
   xmlns="http://www.w3.org/2000/svg"
   xmlns:sodipodi="http://sodipodi.sourceforge.net/DTD/sodipodi-0.dtd"
   xmlns:inkscape="http://www.inkscape.org/namespaces/inkscape"
   width="22"
   height="22"
   viewBox="0 0 21.999999 22.000001"
   id="svg2"
   version="1.1"
   inkscape:version="0.91 r"
   sodipodi:docname="nm-stage03-connecting01.svg">
  <defs
     id="defs4" />
  <sodipodi:namedview
     id="base"
     pagecolor="#ffffff"
     bordercolor="#666666"
     borderopacity="1.0"
     inkscape:pageopacity="0.0"
     inkscape:pageshadow="2"
     inkscape:zoom="32"
     inkscape:cx="12.232811"
     inkscape:cy="11.280831"
     inkscape:document-units="px"
     inkscape:current-layer="layer1"
     showgrid="false"
     fit-margin-top="0"
     fit-margin-left="0"
     fit-margin-right="0"
     fit-margin-bottom="0"
     units="px"
     inkscape:snap-page="true"
     inkscape:object-paths="false"
     inkscape:snap-center="true"
     inkscape:snap-object-midpoints="false"
     inkscape:object-nodes="true"
     inkscape:window-width="1920"
     inkscape:window-height="1056"
     inkscape:window-x="0"
     inkscape:window-y="24"
     inkscape:window-maximized="1" />
  <metadata
     id="metadata7">
    <rdf:RDF>
      <cc:Work
         rdf:about="">
        <dc:format>image/svg+xml</dc:format>
        <dc:type
           rdf:resource="http://purl.org/dc/dcmitype/StillImage" />
        <dc:title></dc:title>
      </cc:Work>
    </rdf:RDF>
  </metadata>
  <g
     inkscape:label="Layer 1"
     inkscape:groupmode="layer"
     id="layer1"
     transform="translate(214.74894,-494.67263)">
    <path
       style="opacity:1;fill:#dbdee0;fill-opacity:1;stroke:none;stroke-width:15;stroke-linecap:round;stroke-miterlimit:4;stroke-dasharray:none;stroke-opacity:1"
       d="m 10.962891,1.0625 0,1.8144531 A 8.1250061,8.1250061 0 0 0 3.1542969,8.8964844 L 5.3007812,9.4726562 A 5.9062564,5.9062564 0 0 1 10.962891,5.0957031 l 0,1.8691407 L 14.109375,4.0136719 10.962891,1.0625 Z m 5.78125,4.1953125 -1.572266,1.5703125 a 5.9062564,5.9062564 0 0 1 0.958984,7.091797 L 14.513672,12.986328 15.496094,17.185547 19.625,15.9375 18.052734,15.029297 A 8.1250061,8.1250061 0 0 0 16.744141,5.2578125 Z M 3.3945312,11.800781 2.4121094,16 3.984375,15.09375 a 8.1250061,8.1250061 0 0 0 9.117187,3.751953 L 12.527344,16.699219 A 5.9062564,5.9062564 0 0 1 5.9042969,13.984375 L 7.5234375,13.048828 3.3945312,11.800781 Z"
       id="path4952"
       inkscape:connector-curvature="0"
       inkscape:transform-center-x="-0.018561843"
       inkscape:transform-center-y="-0.90778315"
       transform="translate(-214.74894,494.67263)" />
  </g>
</svg>
