<?xml version="1.0" encoding="UTF-8" standalone="no"?>
<!-- Created with Inkscape (http://www.inkscape.org/) -->

<svg
   xmlns:dc="http://purl.org/dc/elements/1.1/"
   xmlns:cc="http://creativecommons.org/ns#"
   xmlns:rdf="http://www.w3.org/1999/02/22-rdf-syntax-ns#"
   xmlns:svg="http://www.w3.org/2000/svg"
   xmlns="http://www.w3.org/2000/svg"
   xmlns:sodipodi="http://sodipodi.sourceforge.net/DTD/sodipodi-0.dtd"
   xmlns:inkscape="http://www.inkscape.org/namespaces/inkscape"
   width="22"
   height="22"
   viewBox="0 0 21.999999 22.000001"
   id="svg2"
   version="1.1"
   inkscape:version="0.91 r"
   sodipodi:docname="nm-stage03-connecting04.svg">
  <defs
     id="defs4" />
  <sodipodi:namedview
     id="base"
     pagecolor="#ffffff"
     bordercolor="#666666"
     borderopacity="1.0"
     inkscape:pageopacity="0.0"
     inkscape:pageshadow="2"
     inkscape:zoom="32"
     inkscape:cx="12.232811"
     inkscape:cy="11.280831"
     inkscape:document-units="px"
     inkscape:current-layer="layer1"
     showgrid="false"
     fit-margin-top="0"
     fit-margin-left="0"
     fit-margin-right="0"
     fit-margin-bottom="0"
     units="px"
     inkscape:snap-page="true"
     inkscape:object-paths="false"
     inkscape:snap-center="true"
     inkscape:snap-object-midpoints="false"
     inkscape:object-nodes="true"
     inkscape:window-width="1920"
     inkscape:window-height="1056"
     inkscape:window-x="0"
     inkscape:window-y="24"
     inkscape:window-maximized="1" />
  <metadata
     id="metadata7">
    <rdf:RDF>
      <cc:Work
         rdf:about="">
        <dc:format>image/svg+xml</dc:format>
        <dc:type
           rdf:resource="http://purl.org/dc/dcmitype/StillImage" />
        <dc:title></dc:title>
      </cc:Work>
    </rdf:RDF>
  </metadata>
  <g
     inkscape:label="Layer 1"
     inkscape:groupmode="layer"
     id="layer1"
     transform="translate(214.74894,-494.67263)">
    <path
       style="opacity:1;fill:#dbdee0;fill-opacity:1;stroke:none;stroke-width:15;stroke-linecap:round;stroke-miterlimit:4;stroke-dasharray:none;stroke-opacity:1"
       d="m -193.90729,507.05002 -1.79599,-0.25819 a 8.1250061,8.1250061 0 0 0 -4.8471,-8.58571 l -0.87576,2.04265 a 5.9062564,5.9062564 0 0 1 3.52669,6.22734 l -1.85011,-0.26599 2.47338,3.53442 3.36889,-2.69452 z m -4.97529,5.12543 -1.3306,-1.77973 a 5.9062564,5.9062564 0 0 1 -7.15609,-0.0599 l 1.15421,-1.46787 -4.29628,0.37487 0.6478,4.26448 1.1227,-1.42703 a 8.1250061,8.1250061 0 0 0 9.85826,0.0952 z m -4.57672,-14.14483 -4.0167,-1.56998 0.67333,1.68521 a 8.1250061,8.1250061 0 0 0 -5.01115,8.49051 l 2.20634,-0.26293 a 5.9062564,5.9062564 0 0 1 3.62969,-6.16932 l 0.69565,1.73578 1.82289,-3.9093 z"
       id="path4952"
       inkscape:connector-curvature="0"
       inkscape:transform-center-x="-0.8597931"
       inkscape:transform-center-y="-0.54516951" />
  </g>
</svg>
