<?xml version="1.0" encoding="UTF-8" standalone="no"?>
<!-- Created with Inkscape (http://www.inkscape.org/) -->

<svg
   xmlns:dc="http://purl.org/dc/elements/1.1/"
   xmlns:cc="http://creativecommons.org/ns#"
   xmlns:rdf="http://www.w3.org/1999/02/22-rdf-syntax-ns#"
   xmlns:svg="http://www.w3.org/2000/svg"
   xmlns="http://www.w3.org/2000/svg"
   xmlns:sodipodi="http://sodipodi.sourceforge.net/DTD/sodipodi-0.dtd"
   xmlns:inkscape="http://www.inkscape.org/namespaces/inkscape"
   width="22"
   height="22"
   viewBox="0 0 21.999999 22.000001"
   id="svg2"
   version="1.1"
   inkscape:version="0.91 r"
   sodipodi:docname="nm-stage03-connecting08.svg">
  <defs
     id="defs4" />
  <sodipodi:namedview
     id="base"
     pagecolor="#ffffff"
     bordercolor="#666666"
     borderopacity="1.0"
     inkscape:pageopacity="0.0"
     inkscape:pageshadow="2"
     inkscape:zoom="32"
     inkscape:cx="12.232811"
     inkscape:cy="11.280831"
     inkscape:document-units="px"
     inkscape:current-layer="layer1"
     showgrid="false"
     fit-margin-top="0"
     fit-margin-left="0"
     fit-margin-right="0"
     fit-margin-bottom="0"
     units="px"
     inkscape:snap-page="true"
     inkscape:object-paths="false"
     inkscape:snap-center="true"
     inkscape:snap-object-midpoints="false"
     inkscape:object-nodes="true"
     inkscape:window-width="1920"
     inkscape:window-height="1056"
     inkscape:window-x="0"
     inkscape:window-y="24"
     inkscape:window-maximized="1" />
  <metadata
     id="metadata7">
    <rdf:RDF>
      <cc:Work
         rdf:about="">
        <dc:format>image/svg+xml</dc:format>
        <dc:type
           rdf:resource="http://purl.org/dc/dcmitype/StillImage" />
        <dc:title></dc:title>
      </cc:Work>
    </rdf:RDF>
  </metadata>
  <g
     inkscape:label="Layer 1"
     inkscape:groupmode="layer"
     id="layer1"
     transform="translate(214.74894,-494.67263)">
    <path
       style="opacity:1;fill:#dbdee0;fill-opacity:1;stroke:none;stroke-width:15;stroke-linecap:round;stroke-miterlimit:4;stroke-dasharray:none;stroke-opacity:1"
       d="m -211.23469,512.20861 1.37122,-1.18827 a 8.1250061,8.1250061 0 0 0 9.66286,1.95907 l -0.97023,-1.9995 a 5.9062564,5.9062564 0 0 1 -7.01583,-1.41261 l 1.41257,-1.22406 -4.29087,-0.44521 -0.16969,4.31056 z m -0.61557,-7.1165 2.2164,0.15984 a 5.9062564,5.9062564 0 0 1 4.73141,-5.36908 l 0.35353,1.83354 2.53009,-3.49244 -3.64716,-2.30298 0.34329,1.78298 a 8.1250061,8.1250061 0 0 0 -6.52758,7.38815 z m 13.68718,5.80378 3.81685,-2.00758 -1.71454,-0.59467 a 8.1250061,8.1250061 0 0 0 -3.13527,-9.34721 l -1.24609,1.83965 a 5.9062564,5.9062564 0 0 1 2.28565,6.78313 l -1.76737,-0.61091 1.76082,3.93764 z"
       id="path4952"
       inkscape:connector-curvature="0"
       inkscape:transform-center-x="-0.65069214"
       inkscape:transform-center-y="-0.81461174" />
  </g>
</svg>
