<?xml version="1.0" encoding="UTF-8" standalone="no"?>
<!-- Created with Inkscape (http://www.inkscape.org/) -->

<svg
   xmlns:dc="http://purl.org/dc/elements/1.1/"
   xmlns:cc="http://creativecommons.org/ns#"
   xmlns:rdf="http://www.w3.org/1999/02/22-rdf-syntax-ns#"
   xmlns:svg="http://www.w3.org/2000/svg"
   xmlns="http://www.w3.org/2000/svg"
   xmlns:sodipodi="http://sodipodi.sourceforge.net/DTD/sodipodi-0.dtd"
   xmlns:inkscape="http://www.inkscape.org/namespaces/inkscape"
   width="22"
   height="22"
   viewBox="0 0 21.999999 22.000001"
   id="svg2"
   version="1.1"
   inkscape:version="0.91 r"
   sodipodi:docname="nm-stage03-connecting11.svg">
  <defs
     id="defs4" />
  <sodipodi:namedview
     id="base"
     pagecolor="#ffffff"
     bordercolor="#666666"
     borderopacity="1.0"
     inkscape:pageopacity="0.0"
     inkscape:pageshadow="2"
     inkscape:zoom="32"
     inkscape:cx="12.232811"
     inkscape:cy="11.280831"
     inkscape:document-units="px"
     inkscape:current-layer="layer1"
     showgrid="false"
     fit-margin-top="0"
     fit-margin-left="0"
     fit-margin-right="0"
     fit-margin-bottom="0"
     units="px"
     inkscape:snap-page="true"
     inkscape:object-paths="false"
     inkscape:snap-center="true"
     inkscape:snap-object-midpoints="false"
     inkscape:object-nodes="true"
     inkscape:window-width="1920"
     inkscape:window-height="1056"
     inkscape:window-x="0"
     inkscape:window-y="24"
     inkscape:window-maximized="1" />
  <metadata
     id="metadata7">
    <rdf:RDF>
      <cc:Work
         rdf:about="">
        <dc:format>image/svg+xml</dc:format>
        <dc:type
           rdf:resource="http://purl.org/dc/dcmitype/StillImage" />
        <dc:title></dc:title>
      </cc:Work>
    </rdf:RDF>
  </metadata>
  <g
     inkscape:label="Layer 1"
     inkscape:groupmode="layer"
     id="layer1"
     transform="translate(214.74894,-494.67263)">
    <path
       style="opacity:1;fill:#dbdee0;fill-opacity:1;stroke:none;stroke-width:15;stroke-linecap:round;stroke-miterlimit:4;stroke-dasharray:none;stroke-opacity:1"
       d="m -209.15319,497.333 0.98107,1.52636 a 8.1250061,8.1250061 0 0 0 -3.31417,9.28574 l 2.11721,-0.67583 a 5.9062564,5.9062564 0 0 1 2.3966,-6.74341 l 1.01059,1.57239 1.05128,-4.18385 -4.24256,-0.78137 z m 7.13169,0.40338 -0.47361,2.1711 a 5.9062564,5.9062564 0 0 1 4.64116,5.44728 l -1.86519,0.089 3.09686,3.00132 2.79854,-3.28233 -1.81369,0.0861 a 8.1250061,8.1250061 0 0 0 -6.38408,-7.51249 z m -7.69242,12.72202 1.44401,4.06368 0.83261,-1.61248 a 8.1250061,8.1250061 0 0 0 9.69824,-1.77324 l -1.64361,-1.49519 a 5.9062564,5.9062564 0 0 1 -7.03936,1.29714 l 0.85619,-1.66245 -4.14814,1.18257 z"
       id="path4952"
       inkscape:connector-curvature="0"
       inkscape:transform-center-x="-0.90136473"
       inkscape:transform-center-y="0.25490205" />
  </g>
</svg>
