<?xml version="1.0" encoding="UTF-8" standalone="no"?>
<!-- Created with Inkscape (http://www.inkscape.org/) -->

<svg
   xmlns:dc="http://purl.org/dc/elements/1.1/"
   xmlns:cc="http://creativecommons.org/ns#"
   xmlns:rdf="http://www.w3.org/1999/02/22-rdf-syntax-ns#"
   xmlns:svg="http://www.w3.org/2000/svg"
   xmlns="http://www.w3.org/2000/svg"
   xmlns:sodipodi="http://sodipodi.sourceforge.net/DTD/sodipodi-0.dtd"
   xmlns:inkscape="http://www.inkscape.org/namespaces/inkscape"
   id="svg2"
   version="1.1"
   inkscape:version="0.91 r"
   width="512"
   height="512"
   sodipodi:docname="folder-android.svg"
   viewBox="0 0 512 512">
  <metadata
     id="metadata8">
    <rdf:RDF>
      <cc:Work
         rdf:about="">
        <dc:format>image/svg+xml</dc:format>
        <dc:type
           rdf:resource="http://purl.org/dc/dcmitype/StillImage" />
        <dc:title></dc:title>
      </cc:Work>
    </rdf:RDF>
  </metadata>
  <defs
     id="defs6">
    <filter
       inkscape:collect="always"
       style="color-interpolation-filters:sRGB"
       id="filter4166"
       x="-0.028206533"
       width="1.0564131"
       y="-0.049744379"
       height="1.0994889">
      <feGaussianBlur
         inkscape:collect="always"
         stdDeviation="5.8998423"
         id="feGaussianBlur4168" />
    </filter>
  </defs>
  <sodipodi:namedview
     pagecolor="#ffffff"
     bordercolor="#666666"
     borderopacity="1"
     objecttolerance="10"
     gridtolerance="10"
     guidetolerance="10"
     inkscape:pageopacity="0"
     inkscape:pageshadow="2"
     inkscape:window-width="1920"
     inkscape:window-height="1056"
     id="namedview4"
     showgrid="false"
     showguides="true"
     inkscape:guide-bbox="true"
     inkscape:zoom="1.5985717"
     inkscape:cx="213.80471"
     inkscape:cy="188.10784"
     inkscape:window-x="0"
     inkscape:window-y="24"
     inkscape:window-maximized="1"
     inkscape:current-layer="svg2"
     inkscape:document-units="px"
     inkscape:object-nodes="true" />
  <path
     style="fill:#b95f29;fill-opacity:1;fill-rule:evenodd;stroke:#000000;stroke-width:0;stroke-linecap:butt;stroke-linejoin:miter;stroke-miterlimit:4;stroke-dasharray:none;stroke-opacity:1"
     d="m 55.066851,94.276715 c -7.82428,0 -14.12382,6.297845 -14.12382,14.122115 l 0,37.32867 0,120.13243 0,121.5455 0,7.30709 c 0,5.98757 4.8198,10.80737 10.80738,10.80737 l 408.499319,0 c 5.98757,0 10.80907,-4.8198 10.80907,-10.80737 l 0,-128.85258 -0.002,0 0,-120.13243 c 0,-11.78329 -9.48585,-21.26915 -21.26914,-21.26915 l -218.96832,0 c -5.81617,0 -8.11397,-0.68519 -11.8386,-4.18889 L 197.01302,98.500575 c -0.0748,-0.0762 -0.15164,-0.15024 -0.22814,-0.22473 l -0.0443,-0.0426 -0.002,0.002 c -2.53734,-2.44894 -5.98807,-3.95828 -9.80972,-3.95828 z"
     id="rect2982-2"
     inkscape:connector-curvature="0"
     sodipodi:nodetypes="sscccssssccssccccccss" />
  <path
     style="opacity:0.3;fill:#000000;fill-opacity:1;fill-rule:evenodd;stroke:#000000;stroke-width:0;stroke-linecap:butt;stroke-linejoin:miter;stroke-miterlimit:4;stroke-dasharray:none;stroke-opacity:1;filter:url(#filter4166)"
     d="m 28.241425,148.07206 c -12.87594,0 -23.24141,9.6069 -23.24141,21.54052 l 16,244.76159 0,7.4003 c 0,6.06398 5.26673,10.94526 11.80953,10.94526 l 446.379045,0 c 6.54281,0 11.81139,-4.88128 11.81139,-10.94526 l 15.998,-252.16189 c 0,-11.93362 -10.36547,-21.54052 -23.24141,-21.54052 l -455.515295,0 z"
     id="rect2982-5"
     inkscape:connector-curvature="0"
     sodipodi:nodetypes="cccsssccscc"
     transform="matrix(0.88626203,0,0,0.86265191,29.117811,27.075355)" />
  <path
     style="fill:#e8824a;fill-opacity:1;fill-rule:evenodd;stroke:#000000;stroke-width:0;stroke-linecap:butt;stroke-linejoin:miter;stroke-miterlimit:4;stroke-dasharray:none;stroke-opacity:1"
     d="m 47.569941,157.23082 c -11.78329,0 -21.269145,8.79166 -21.269145,19.7126 l 14.642235,223.99111 0,6.77232 c 0,5.54938 4.8198,10.01644 10.80738,10.01644 l 408.499319,0 c 5.98757,0 10.80907,-4.46706 10.80907,-10.01644 l 14.64041,-230.76344 c 0,-10.92094 -9.48585,-19.71259 -21.26914,-19.71259 l -416.860269,0 z"
     id="rect2982"
     inkscape:connector-curvature="0"
     sodipodi:nodetypes="cccsssccscc" />
  <g
     id="g4295">
    <path
       inkscape:connector-curvature="0"
       id="path4216"
       d="m 188.56215,291.34202 134.25776,0"
       style="opacity:1;fill:none;fill-rule:evenodd;stroke:#ffffff;stroke-width:15;stroke-linecap:butt;stroke-linejoin:miter;stroke-miterlimit:4;stroke-dasharray:none;stroke-opacity:1" />
    <path
       sodipodi:nodetypes="sssscssscs"
       inkscape:connector-curvature="0"
       id="rect4190"
       d="m 322.88641,342.41435 c 0,2.95267 -2.25734,5.32973 -5.06133,5.32973 l -123.65019,0 c -2.80397,0 -5.06131,-2.37706 -5.06131,-5.32973 l 0,-53.23074 c 0,-17.24325 7.04693,-33.78026 19.59057,-45.97308 12.54364,-12.19282 29.55645,-19.04268 47.29584,-19.04268 17.73938,0 34.75221,6.84985 47.29584,19.04267 12.54363,12.19283 19.59059,28.72984 19.59059,45.97309 z"
       style="opacity:1;fill:none;stroke:#ffffff;stroke-width:15;stroke-miterlimit:4;stroke-dasharray:none" />
    <circle
       r="8.1255589"
       style="opacity:1;fill:#ffffff;fill-opacity:1;stroke:none;stroke-width:90;stroke-miterlimit:4;stroke-dasharray:none;stroke-opacity:1"
       id="circle4214"
       cx="230.58078"
       cy="258.93756" />
    <circle
       r="8.1255589"
       cy="258.93756"
       cx="281.41922"
       id="path4212"
       style="opacity:1;fill:#ffffff;fill-opacity:1;stroke:none;stroke-width:90;stroke-miterlimit:4;stroke-dasharray:none;stroke-opacity:1" />
    <path
       inkscape:connector-curvature="0"
       id="path4271"
       d="m 292.5409,229.71435 15.23739,-24.61419"
       style="opacity:1;fill:none;fill-rule:evenodd;stroke:#ffffff;stroke-width:15;stroke-linecap:round;stroke-linejoin:miter;stroke-miterlimit:4;stroke-dasharray:none;stroke-opacity:1"
       sodipodi:nodetypes="cc" />
    <path
       sodipodi:nodetypes="cc"
       style="opacity:1;fill:none;fill-rule:evenodd;stroke:#ffffff;stroke-width:15;stroke-linecap:round;stroke-linejoin:miter;stroke-miterlimit:4;stroke-dasharray:none;stroke-opacity:1"
       d="M 218.81611,229.71435 203.57872,205.10016"
       id="path4220"
       inkscape:connector-curvature="0" />
  </g>
</svg>
